<svg width="28" height="22" viewBox="0 0 28 22" fill="none" xmlns="http://www.w3.org/2000/svg">
<path d="M2.66405 22C1.9196 22 1.28947 21.7433 0.773684 21.23C0.257895 20.7167 0 20.0895 0 19.3486V2.65137C0 1.91046 0.257895 1.28333 0.773684 0.77C1.28947 0.256667 1.9196 0 2.66405 0H25.3359C26.0804 0 26.7105 0.256667 27.2263 0.77C27.7421 1.28333 28 1.91046 28 2.65137V19.3486C28 20.0895 27.7421 20.7167 27.2263 21.23C26.7105 21.7433 26.0804 22 25.3359 22H2.66405ZM14.3655 11.5203C14.4866 11.4836 14.6037 11.4334 14.7169 11.3696L25.2567 4.65373C25.4247 4.55033 25.5437 4.41638 25.6137 4.25187C25.6837 4.08736 25.7045 3.91392 25.676 3.73157C25.6571 3.39301 25.4908 3.14148 25.1772 2.97697C24.8638 2.81246 24.5474 2.827 24.2281 3.0206L14 9.53333L3.77189 3.0206C3.4526 2.827 3.13858 2.81148 2.82984 2.97403C2.52086 3.13683 2.35225 3.38458 2.324 3.71727C2.29551 3.91478 2.31626 4.09811 2.38626 4.26727C2.45626 4.43667 2.57526 4.56549 2.74326 4.65373L13.2831 11.3696C13.3963 11.4334 13.5134 11.4836 13.6345 11.5203C13.7554 11.557 13.8772 11.5753 14 11.5753C14.1228 11.5753 14.2446 11.557 14.3655 11.5203Z" fill="white"/>
</svg>
