<svg width="30" height="25" viewBox="0 0 30 25" fill="none" xmlns="http://www.w3.org/2000/svg">
<path fill-rule="evenodd" clip-rule="evenodd" d="M2.01777 10.4716C9.89679 7.0388 15.1507 4.77572 17.7795 3.68231C25.2853 0.560407 26.8449 0.0180983 27.8615 0.00019093C28.085 -0.00374759 28.5849 0.0516627 28.9088 0.31442C29.1822 0.536287 29.2574 0.835998 29.2934 1.04635C29.3294 1.25671 29.3743 1.7359 29.3386 2.11033C28.9319 6.38398 27.1719 16.755 26.2765 21.5416C25.8977 23.5669 25.1517 24.246 24.4295 24.3125C22.86 24.4569 21.6681 23.2752 20.148 22.2788C17.7692 20.7195 16.4254 19.7488 14.1164 18.2272C11.4479 16.4687 13.1778 15.5023 14.6985 13.9228C15.0965 13.5094 22.0119 7.21934 22.1457 6.64873C22.1624 6.57737 22.178 6.31135 22.02 6.17089C21.8619 6.03043 21.6287 6.07846 21.4604 6.11666C21.2218 6.17081 17.4217 8.68253 10.0601 13.6518C8.98144 14.3925 8.00444 14.7534 7.12908 14.7345C6.16406 14.7136 4.30776 14.1888 2.92779 13.7403C1.23521 13.1901 -0.110029 12.8992 0.00711072 11.9648C0.0681243 11.4781 0.738346 10.9803 2.01777 10.4716Z" fill="white"/>
</svg>
