<svg width="150" height="177" viewBox="0 0 150 177" fill="none" xmlns="http://www.w3.org/2000/svg">
<path d="M40.1162 166.431L33.3333 177L0 176.833L0 108.282H8.08097V169.672H32.2277V108.282H40.3086V159.261H47.5238V176.833H40.1162V166.431Z" fill="#050505"/>
<path d="M53.8355 108.282H61.9165V138.535H73.7494L87.9873 108.282H96.5493L83.7544 135.392C82.6641 137.684 81.6379 139.288 80.6759 140.205C79.7139 141.056 78.6557 141.58 77.5012 141.777V142.268C78.9122 142.595 80.0987 143.283 81.0607 144.331C82.0227 145.313 83.081 147.146 84.2354 149.831L92.8936 169.672H99.1467V176.843H93.086C91.1619 176.843 89.4624 176.286 87.9873 175.173C86.5122 173.994 85.2295 172.128 84.1392 169.574L73.7494 145.608H61.9165V176.843H53.8355V108.282Z" fill="#050505"/>
<path d="M107.671 108.282H115.752V142.857L114.405 162.699H114.886L142.304 108.282H150V176.843H141.919V142.268L143.266 122.427H142.785L115.367 176.843H107.671V108.282Z" fill="#050505"/>
<path d="M47.8653 92.0636C47.1256 94.6226 46.7466 97.2781 46.7466 99.9529H0V82.8752L47.8653 92.0636Z" fill="#050505"/>
<path d="M75 76.768C78.0357 76.768 81.0416 77.3679 83.8462 78.533C86.6509 79.6982 89.1995 81.4055 91.346 83.5584C93.4926 85.7113 95.1949 88.2675 96.3566 91.0805C97.5183 93.8934 98.1164 96.9082 98.1164 99.9529H51.8836C51.8836 96.9082 52.4817 93.8934 53.6434 91.0805C54.8051 88.2676 56.5074 85.7113 58.6539 83.5584C60.8005 81.4055 63.3491 79.6982 66.1537 78.533C68.9584 77.3679 71.9643 76.768 75 76.768Z" fill="#050505"/>
<path d="M150 99.9529H103.253C103.253 97.2781 102.873 94.6227 102.134 92.0636L150 82.8752V99.9529Z" fill="#050505"/>
<path d="M52.8076 82.4153C51.6419 83.8991 50.6261 85.4968 49.7766 87.1851L0 77.6304V52.5496L52.8076 82.4153Z" fill="#050505"/>
<path d="M150 77.6304L100.222 87.1851C99.3728 85.4968 98.3571 83.8991 97.1914 82.4153L150 52.5496V77.6304Z" fill="#050505"/>
<path d="M61.0729 75.2978C59.4324 76.23 57.8885 77.3259 56.4637 78.5682L0 46.6356V3.30567L61.0729 75.2978Z" fill="#050505"/>
<path d="M150 46.6356L93.5353 78.5682C92.1104 77.3259 90.5666 76.2299 88.926 75.2978L150 3.30567V46.6356Z" fill="#050505"/>
<path d="M72.4315 71.7345C70.2286 71.9362 68.0563 72.3966 65.9591 73.1071L3.94003 0H72.4315V71.7345Z" fill="#050505"/>
<path d="M84.0399 73.1071C81.9429 72.3968 79.7711 71.9362 77.5685 71.7345V0H146.06L84.0399 73.1071Z" fill="#050505"/>
</svg>
